<svg xmlns="http://www.w3.org/2000/svg" viewBox="0 0 800 600">
  <defs>
    <style>
      .title-text { font-family: 'Segoe UI', Arial, sans-serif; font-size: 32px; font-weight: bold; fill: #1e40af; }
      .subtitle-text { font-family: 'Segoe UI', Arial, sans-serif; font-size: 18px; fill: #6b7280; }
      .header-text { font-family: 'Segoe UI', Arial, sans-serif; font-size: 20px; font-weight: 600; fill: #1f2937; }
      .body-text { font-family: 'Segoe UI', Arial, sans-serif; font-size: 14px; fill: #374151; }
      .small-text { font-family: 'Segoe UI', Arial, sans-serif; font-size: 12px; fill: #6b7280; }
      .nav-text { font-family: 'Segoe UI', Arial, sans-serif; font-size: 14px; fill: #374151; }
      .metric-number { font-family: 'Segoe UI', Arial, sans-serif; font-size: 28px; font-weight: bold; fill: #1e40af; }
      .metric-label { font-family: 'Segoe UI', Arial, sans-serif; font-size: 12px; fill: #6b7280; }
      
      .screen { stroke: #e5e7eb; stroke-width: 2; fill: white; }
      .sidebar { fill: #f8fafc; stroke: #e5e7eb; }
      .card { fill: white; stroke: #e5e7eb; }
    </style>
  </defs>

  <!-- Background -->
  <rect width="800" height="600" fill="#f9fafb"/>

  <!-- Main Title -->
  <text x="400" y="40" text-anchor="middle" class="title-text">Analytics Dashboard</text>
  <text x="400" y="65" text-anchor="middle" class="subtitle-text">Real-Time Contract Management Insights</text>

  <!-- Dashboard Screen -->
  <g transform="translate(50, 100)">
    <rect class="screen" width="700" height="400" rx="12"/>
    
    <!-- Sidebar -->
    <rect x="15" y="15" width="120" height="370" class="sidebar" rx="6"/>
    <text x="75" y="40" text-anchor="middle" class="header-text">📊 Dashboard</text>
    <text x="75" y="65" text-anchor="middle" class="nav-text">Contracts</text>
    <text x="75" y="85" text-anchor="middle" class="nav-text">Upload</text>
    <text x="75" y="105" text-anchor="middle" class="nav-text">Analytics</text>
    <text x="75" y="125" text-anchor="middle" class="nav-text">Reports</text>
    <text x="75" y="145" text-anchor="middle" class="nav-text">Users</text>
    <text x="75" y="165" text-anchor="middle" class="nav-text">Audit Trail</text>
    
    <!-- Main Content Area -->
    <rect x="145" y="15" width="540" height="370" class="card" rx="6"/>
    
    <!-- Header -->
    <text x="415" y="45" text-anchor="middle" class="header-text">Contract Management Overview</text>
    
    <!-- Metrics Cards -->
    <rect x="165" y="65" width="120" height="80" class="card" rx="6"/>
    <text x="225" y="90" text-anchor="middle" class="metric-number">247</text>
    <text x="225" y="110" text-anchor="middle" class="metric-label">Total Contracts</text>
    <text x="225" y="125" text-anchor="middle" class="small-text">+12 this week</text>
    
    <rect x="295" y="65" width="120" height="80" class="card" rx="6"/>
    <text x="355" y="90" text-anchor="middle" class="metric-number">12</text>
    <text x="355" y="110" text-anchor="middle" class="metric-label">Processing</text>
    <text x="355" y="125" text-anchor="middle" class="small-text">In progress</text>
    
    <rect x="425" y="65" width="120" height="80" class="card" rx="6"/>
    <text x="485" y="90" text-anchor="middle" class="metric-number">94%</text>
    <text x="485" y="110" text-anchor="middle" class="metric-label">Accuracy Rate</text>
    <text x="485" y="125" text-anchor="middle" class="small-text">AI Analysis</text>
    
    <rect x="555" y="65" width="120" height="80" class="card" rx="6"/>
    <text x="615" y="90" text-anchor="middle" class="metric-number">$2.4M</text>
    <text x="615" y="110" text-anchor="middle" class="metric-label">Total Value</text>
    <text x="615" y="125" text-anchor="middle" class="small-text">Portfolio</text>
    
    <!-- Chart Area -->
    <rect x="165" y="160" width="510" height="200" fill="#f8fafc" stroke="#e5e7eb" rx="6"/>
    <text x="420" y="185" text-anchor="middle" class="header-text">Contract Analysis Trends</text>
    
    <!-- Chart Lines -->
    <polyline points="180,320 220,290 260,300 300,270 340,275 380,250 420,260 460,230 500,235 540,210 580,220 620,195 660,200" 
              stroke="#10b981" stroke-width="3" fill="none"/>
    <polyline points="180,330 220,310 260,320 300,300 340,305 380,285 420,295 460,275 500,280 540,260 580,270 620,245 660,250" 
              stroke="#3b82f6" stroke-width="3" fill="none"/>
    <polyline points="180,340 220,325 260,335 300,315 340,320 380,300 420,310 460,290 500,295 540,275 580,285 620,260 660,265" 
              stroke="#f59e0b" stroke-width="2" fill="none"/>
    
    <!-- Legend -->
    <rect x="180" y="330" width="12" height="3" fill="#10b981"/>
    <text x="200" y="337" class="small-text">Completed</text>
    <rect x="260" y="330" width="12" height="3" fill="#3b82f6"/>
    <text x="280" y="337" class="small-text">In Progress</text>
    <rect x="350" y="330" width="12" height="3" fill="#f59e0b"/>
    <text x="370" y="337" class="small-text">Risk Level</text>
  </g>

  <!-- Key Insights -->
  <g transform="translate(100, 520)">
    <text x="300" y="25" text-anchor="middle" class="header-text">Key Performance Indicators</text>
    
    <rect x="50" y="35" width="150" height="50" fill="#f0fdf4" stroke="#10b981" rx="6"/>
    <text x="125" y="55" text-anchor="middle" class="body-text" fill="#10b981">↑ 15% Efficiency</text>
    <text x="125" y="72" text-anchor="middle" class="small-text">vs. last month</text>
    
    <rect x="225" y="35" width="150" height="50" fill="#fef3c7" stroke="#f59e0b" rx="6"/>
    <text x="300" y="55" text-anchor="middle" class="body-text" fill="#f59e0b">⚠ 8 High Risk</text>
    <text x="300" y="72" text-anchor="middle" class="small-text">Contracts require review</text>
    
    <rect x="400" y="35" width="150" height="50" fill="#f0f9ff" stroke="#3b82f6" rx="6"/>
    <text x="475" y="55" text-anchor="middle" class="body-text" fill="#3b82f6">⏱ 2.3 min avg</text>
    <text x="475" y="72" text-anchor="middle" class="small-text">Processing time</text>
  </g>
</svg>