<svg xmlns="http://www.w3.org/2000/svg" viewBox="0 0 800 600">
  <defs>
    <style>
      .title-text { font-family: 'Segoe UI', Arial, sans-serif; font-size: 32px; font-weight: bold; fill: #1e40af; }
      .subtitle-text { font-family: 'Segoe UI', Arial, sans-serif; font-size: 18px; fill: #6b7280; }
      .header-text { font-family: 'Segoe UI', Arial, sans-serif; font-size: 18px; font-weight: 600; fill: #1f2937; }
      .body-text { font-family: 'Segoe UI', Arial, sans-serif; font-size: 14px; fill: #374151; }
      .small-text { font-family: 'Segoe UI', Arial, sans-serif; font-size: 12px; fill: #6b7280; }
      .button-text { font-family: 'Segoe UI', Arial, sans-serif; font-size: 12px; font-weight: 600; fill: white; }
      .metric-number { font-family: 'Segoe UI', Arial, sans-serif; font-size: 24px; font-weight: bold; }
      
      .screen { stroke: #e5e7eb; stroke-width: 2; fill: white; }
      .card { fill: white; stroke: #e5e7eb; }
      .primary-btn { fill: #3b82f6; }
      .success { fill: #10b981; }
      .warning { fill: #f59e0b; }
      .secondary-btn { fill: #e5e7eb; stroke: #d1d5db; }
      .ai-rules { fill: #f0f9ff; stroke: #3b82f6; }
    </style>
  </defs>

  <!-- Background -->
  <rect width="800" height="600" fill="#f9fafb"/>

  <!-- Main Title -->
  <text x="400" y="40" text-anchor="middle" class="title-text">AI-Powered Royalty Calculations</text>
  <text x="400" y="65" text-anchor="middle" class="subtitle-text">Dynamic Rule Generation &amp; Automated Royalty Processing</text>

  <!-- Calculation Dashboard -->
  <g transform="translate(50, 90)">
    <rect class="screen" width="700" height="400" rx="12"/>
    
    <!-- Header -->
    <text x="30" y="30" class="header-text">💰 Royalty Analysis: Music_Publishing_Agreement.pdf</text>
    <text x="30" y="50" class="body-text">AI has extracted and processed royalty calculation rules</text>
    
    <!-- AI-Generated Rules Section -->
    <rect x="20" y="70" width="320" height="160" class="ai-rules" rx="6"/>
    <text x="30" y="90" class="header-text">🤖 AI-Extracted Rules</text>
    <text x="30" y="110" class="small-text">Automatically identified from contract document:</text>
    
    <!-- Rule 1 -->
    <rect x="35" y="120" width="12" height="12" class="success" rx="6"/>
    <text x="55" y="130" class="body-text" font-weight="600">Streaming Revenue:</text>
    <text x="55" y="145" class="small-text">15% of net streaming revenue</text>
    
    <!-- Rule 2 -->
    <rect x="35" y="155" width="12" height="12" class="success" rx="6"/>
    <text x="55" y="165" class="body-text" font-weight="600">Physical Sales:</text>
    <text x="55" y="180" class="small-text">12% of wholesale price after returns</text>
    
    <!-- Rule 3 -->
    <rect x="35" y="190" width="12" height="12" class="warning" rx="6"/>
    <text x="55" y="200" class="body-text" font-weight="600">Synchronization:</text>
    <text x="55" y="215" class="small-text">50% split on sync licensing fees</text>
    
    <!-- Confidence Score -->
    <rect x="250" y="85" width="70" height="25" class="success" rx="12"/>
    <text x="285" y="100" text-anchor="middle" class="button-text">92% Confident</text>
    
    <!-- Live Calculations Section -->
    <rect x="360" y="70" width="320" height="160" class="card" rx="6"/>
    <text x="370" y="90" class="header-text">📊 Real-Time Calculations</text>
    <text x="370" y="110" class="small-text">Based on current revenue data:</text>
    
    <!-- Calculation Results -->
    <rect x="380" y="125" width="280" height="25" fill="#f0fdf4" stroke="#10b981" rx="3"/>
    <text x="390" y="140" class="body-text">Q4 2024 Streaming Royalty:</text>
    <text x="600" y="140" text-anchor="end" class="metric-number" fill="#10b981">$18,450</text>
    
    <rect x="380" y="155" width="280" height="25" fill="#f0f9ff" stroke="#3b82f6" rx="3"/>
    <text x="390" y="170" class="body-text">Physical Sales Royalty:</text>
    <text x="600" y="170" text-anchor="end" class="metric-number" fill="#3b82f6">$7,230</text>
    
    <rect x="380" y="185" width="280" height="25" fill="#fef3c7" stroke="#f59e0b" rx="3"/>
    <text x="390" y="200" class="body-text">Sync License Revenue:</text>
    <text x="600" y="200" text-anchor="end" class="metric-number" fill="#f59e0b">$12,500</text>
    
    <rect x="380" y="205" width="280" height="20" fill="#1e40af" rx="3"/>
    <text x="390" y="218" class="body-text" fill="white">Total Quarterly Royalty:</text>
    <text x="600" y="218" text-anchor="end" class="metric-number" fill="white">$38,180</text>
    
    <!-- Dynamic Rule Processing -->
    <rect x="20" y="250" width="660" height="130" class="card" rx="6"/>
    <text x="30" y="275" class="header-text">⚡ Dynamic Processing Engine</text>
    
    <!-- Processing Steps -->
    <rect x="40" y="290" width="200" height="80" fill="#f8fafc" stroke="#e5e7eb" rx="4"/>
    <text x="50" y="310" class="body-text" font-weight="600">1. Document Analysis</text>
    <text x="50" y="325" class="small-text">• Extract royalty clauses</text>
    <text x="50" y="340" class="small-text">• Identify calculation methods</text>
    <text x="50" y="355" class="small-text">• Parse percentage rates</text>
    
    <rect x="260" y="290" width="200" height="80" fill="#f8fafc" stroke="#e5e7eb" rx="4"/>
    <text x="270" y="310" class="body-text" font-weight="600">2. Rule Generation</text>
    <text x="270" y="325" class="small-text">• Create calculation formulas</text>
    <text x="270" y="340" class="small-text">• Set up triggers & conditions</text>
    <text x="270" y="355" class="small-text">• Validate against patterns</text>
    
    <rect x="480" y="290" width="180" height="80" fill="#f8fafc" stroke="#e5e7eb" rx="4"/>
    <text x="490" y="310" class="body-text" font-weight="600">3. Auto Calculations</text>
    <text x="490" y="325" class="small-text">• Apply rules to revenue data</text>
    <text x="490" y="340" class="small-text">• Generate real-time totals</text>
    <text x="490" y="355" class="small-text">• Update automatically</text>
  </g>

  <!-- Benefits and Features -->
  <g transform="translate(50, 510)">
    <text x="350" y="25" text-anchor="middle" class="header-text">Automated Royalty System Benefits</text>
    
    <rect x="50" y="35" width="160" height="50" fill="#f0fdf4" stroke="#10b981" rx="6"/>
    <text x="130" y="55" text-anchor="middle" class="body-text" fill="#10b981">🔄 Auto-Generated Rules</text>
    <text x="130" y="72" text-anchor="middle" class="small-text">From contract documents</text>
    
    <rect x="230" y="35" width="160" height="50" fill="#f0f9ff" stroke="#3b82f6" rx="6"/>
    <text x="310" y="55" text-anchor="middle" class="body-text" fill="#3b82f6">⚡ Real-Time Processing</text>
    <text x="310" y="72" text-anchor="middle" class="small-text">Dynamic calculations</text>
    
    <rect x="410" y="35" width="160" height="50" fill="#fef3c7" stroke="#f59e0b" rx="6"/>
    <text x="490" y="55" text-anchor="middle" class="body-text" fill="#f59e0b">📈 Revenue Tracking</text>
    <text x="490" y="72" text-anchor="middle" class="small-text">Multi-source integration</text>
    
    <rect x="590" y="35" width="160" height="50" fill="#fdf2f8" stroke="#ec4899" rx="6"/>
    <text x="670" y="55" text-anchor="middle" class="body-text" fill="#ec4899">🎯 95% Accuracy</text>
    <text x="670" y="72" text-anchor="middle" class="small-text">AI-validated results</text>
  </g>
</svg>