<svg xmlns="http://www.w3.org/2000/svg" viewBox="0 0 800 600">
  <defs>
    <style>
      .title-text { font-family: 'Segoe UI', Arial, sans-serif; font-size: 32px; font-weight: bold; fill: #1e40af; }
      .subtitle-text { font-family: 'Segoe UI', Arial, sans-serif; font-size: 18px; fill: #6b7280; }
      .header-text { font-family: 'Segoe UI', Arial, sans-serif; font-size: 18px; font-weight: 600; fill: #1f2937; }
      .body-text { font-family: 'Segoe UI', Arial, sans-serif; font-size: 14px; fill: #374151; }
      .small-text { font-family: 'Segoe UI', Arial, sans-serif; font-size: 12px; fill: #6b7280; }
      .button-text { font-family: 'Segoe UI', Arial, sans-serif; font-size: 12px; font-weight: 600; fill: white; }
      .metric-number { font-family: 'Segoe UI', Arial, sans-serif; font-size: 20px; font-weight: bold; }
      
      .screen { stroke: #e5e7eb; stroke-width: 2; fill: white; }
      .card { fill: white; stroke: #e5e7eb; }
      .primary-btn { fill: #3b82f6; }
      .success { fill: #10b981; }
      .warning { fill: #f59e0b; }
      .secondary-btn { fill: #e5e7eb; stroke: #d1d5db; }
      .ai-rules { fill: #f0f9ff; stroke: #3b82f6; }
    </style>
  </defs>

  <!-- Background -->
  <rect width="800" height="600" fill="#f9fafb"/>

  <!-- Main Title -->
  <text x="400" y="40" text-anchor="middle" class="title-text">AI-Powered Royalty Calculations</text>
  <text x="400" y="65" text-anchor="middle" class="subtitle-text">Dynamic Rule Generation &amp; Automated Royalty Processing</text>

  <!-- Calculation Dashboard -->
  <g transform="translate(50, 90)">
    <rect class="screen" width="700" height="350" rx="12"/>
    
    <!-- Header -->
    <text x="30" y="30" class="header-text">💰 Royalty Analysis: Music_Publishing_Agreement.pdf</text>
    <text x="30" y="50" class="body-text">AI has extracted and processed royalty calculation rules</text>
    
    <!-- AI-Generated Rules Section -->
    <rect x="20" y="70" width="310" height="130" class="ai-rules" rx="6"/>
    <text x="30" y="90" class="header-text">🤖 AI-Extracted Rules</text>
    <text x="30" y="108" class="small-text">Automatically identified from contract:</text>
    
    <!-- Rule 1 -->
    <rect x="35" y="118" width="10" height="10" class="success" rx="5"/>
    <text x="52" y="127" class="body-text" font-weight="600">Streaming Revenue:</text>
    <text x="52" y="140" class="small-text">15% of net streaming revenue</text>
    
    <!-- Rule 2 -->
    <rect x="35" y="148" width="10" height="10" class="success" rx="5"/>
    <text x="52" y="157" class="body-text" font-weight="600">Physical Sales:</text>
    <text x="52" y="170" class="small-text">12% of wholesale price after returns</text>
    
    <!-- Rule 3 -->
    <rect x="35" y="178" width="10" height="10" class="warning" rx="5"/>
    <text x="52" y="187" class="body-text" font-weight="600">Synchronization:</text>
    <text x="52" y="200" class="small-text">50% split on sync licensing fees</text>
    
    <!-- Confidence Score -->
    <rect x="240" y="85" width="70" height="20" class="success" rx="10"/>
    <text x="275" y="97" text-anchor="middle" class="button-text">92% Confident</text>
    
    <!-- Live Calculations Section -->
    <rect x="350" y="70" width="330" height="130" class="card" rx="6"/>
    <text x="360" y="90" class="header-text">📊 Real-Time Calculations</text>
    <text x="360" y="108" class="small-text">Based on current revenue data:</text>
    
    <!-- Calculation Results -->
    <rect x="365" y="120" width="300" height="18" fill="#f0fdf4" stroke="#10b981" rx="3"/>
    <text x="375" y="132" class="body-text">Q4 2024 Streaming:</text>
    <text x="655" y="132" text-anchor="end" class="metric-number" fill="#10b981">$18,450</text>
    
    <rect x="365" y="143" width="300" height="18" fill="#f0f9ff" stroke="#3b82f6" rx="3"/>
    <text x="375" y="155" class="body-text">Physical Sales:</text>
    <text x="655" y="155" text-anchor="end" class="metric-number" fill="#3b82f6">$7,230</text>
    
    <rect x="365" y="166" width="300" height="18" fill="#fef3c7" stroke="#f59e0b" rx="3"/>
    <text x="375" y="178" class="body-text">Sync Licenses:</text>
    <text x="655" y="178" text-anchor="end" class="metric-number" fill="#f59e0b">$12,500</text>
    
    <rect x="365" y="189" width="300" height="15" fill="#1e40af" rx="3"/>
    <text x="375" y="200" class="body-text" fill="white">Total Quarterly:</text>
    <text x="655" y="200" text-anchor="end" class="metric-number" fill="white">$38,180</text>
    
    <!-- Dynamic Rule Processing -->
    <rect x="20" y="220" width="660" height="110" class="card" rx="6"/>
    <text x="30" y="240" class="header-text">⚡ Dynamic Processing Engine</text>
    
    <!-- Processing Steps -->
    <rect x="35" y="255" width="190" height="65" fill="#f8fafc" stroke="#e5e7eb" rx="4"/>
    <text x="45" y="272" class="body-text" font-weight="600">1. Document Analysis</text>
    <text x="45" y="285" class="small-text">• Extract royalty clauses</text>
    <text x="45" y="298" class="small-text">• Identify calculation methods</text>
    <text x="45" y="311" class="small-text">• Parse percentage rates</text>
    
    <rect x="245" y="255" width="190" height="65" fill="#f8fafc" stroke="#e5e7eb" rx="4"/>
    <text x="255" y="272" class="body-text" font-weight="600">2. Rule Generation</text>
    <text x="255" y="285" class="small-text">• Create calculation formulas</text>
    <text x="255" y="298" class="small-text">• Set up triggers &amp; conditions</text>
    <text x="255" y="311" class="small-text">• Validate against patterns</text>
    
    <rect x="455" y="255" width="190" height="65" fill="#f8fafc" stroke="#e5e7eb" rx="4"/>
    <text x="465" y="272" class="body-text" font-weight="600">3. Auto Calculations</text>
    <text x="465" y="285" class="small-text">• Apply rules to revenue data</text>
    <text x="465" y="298" class="small-text">• Generate real-time totals</text>
    <text x="465" y="311" class="small-text">• Update automatically</text>
  </g>

  <!-- Benefits and Features -->
  <g transform="translate(50, 460)">
    <text x="350" y="25" text-anchor="middle" class="header-text">Automated Royalty System Benefits</text>
    
    <rect x="50" y="35" width="160" height="50" fill="#f0fdf4" stroke="#10b981" rx="6"/>
    <text x="130" y="55" text-anchor="middle" class="body-text" fill="#10b981">🔄 Auto-Generated Rules</text>
    <text x="130" y="72" text-anchor="middle" class="small-text">From contract documents</text>
    
    <rect x="230" y="35" width="160" height="50" fill="#f0f9ff" stroke="#3b82f6" rx="6"/>
    <text x="310" y="55" text-anchor="middle" class="body-text" fill="#3b82f6">⚡ Real-Time Processing</text>
    <text x="310" y="72" text-anchor="middle" class="small-text">Dynamic calculations</text>
    
    <rect x="410" y="35" width="160" height="50" fill="#fef3c7" stroke="#f59e0b" rx="6"/>
    <text x="490" y="55" text-anchor="middle" class="body-text" fill="#f59e0b">📈 Revenue Tracking</text>
    <text x="490" y="72" text-anchor="middle" class="small-text">Multi-source integration</text>
    
    <rect x="590" y="35" width="160" height="50" fill="#fdf2f8" stroke="#ec4899" rx="6"/>
    <text x="670" y="55" text-anchor="middle" class="body-text" fill="#ec4899">🎯 95% Accuracy</text>
    <text x="670" y="72" text-anchor="middle" class="small-text">AI-validated results</text>
  </g>
</svg>