<svg xmlns="http://www.w3.org/2000/svg" viewBox="0 0 1600 1200">
  <defs>
    <style>
      .title-text { font-family: 'Segoe UI', Arial, sans-serif; font-size: 24px; font-weight: bold; fill: #1e40af; }
      .subtitle-text { font-family: 'Segoe UI', Arial, sans-serif; font-size: 14px; fill: #6b7280; }
      .header-text { font-family: 'Segoe UI', Arial, sans-serif; font-size: 14px; font-weight: 600; fill: #1f2937; }
      .body-text { font-family: 'Segoe UI', Arial, sans-serif; font-size: 11px; fill: #374151; }
      .small-text { font-family: 'Segoe UI', Arial, sans-serif; font-size: 9px; fill: #6b7280; }
      .button-text { font-family: 'Segoe UI', Arial, sans-serif; font-size: 10px; font-weight: 600; fill: white; }
      .nav-text { font-family: 'Segoe UI', Arial, sans-serif; font-size: 10px; fill: #374151; }
      .metric-number { font-family: 'Segoe UI', Arial, sans-serif; font-size: 16px; font-weight: bold; fill: #1e40af; }
      .metric-label { font-family: 'Segoe UI', Arial, sans-serif; font-size: 9px; fill: #6b7280; }
      
      .screen { stroke: #e5e7eb; stroke-width: 2; fill: white; }
      .primary-btn { fill: #3b82f6; stroke: none; }
      .secondary-btn { fill: #e5e7eb; stroke: #d1d5db; }
      .sidebar { fill: #f8fafc; stroke: #e5e7eb; }
      .card { fill: white; stroke: #e5e7eb; }
      .progress-bar { fill: #3b82f6; }
      .progress-bg { fill: #e5e7eb; }
      .success { fill: #10b981; }
      .warning { fill: #f59e0b; }
      .danger { fill: #ef4444; }
      .arrow { stroke: #6b7280; stroke-width: 2; fill: none; marker-end: url(#arrowhead); }
      .human-review { fill: #fef3c7; stroke: #f59e0b; }
      .ai-rules { fill: #f0f9ff; stroke: #3b82f6; }
    </style>
    
    <marker id="arrowhead" markerWidth="8" markerHeight="6" refX="8" refY="3" orient="auto">
      <polygon points="0 0, 8 3, 0 6" fill="#6b7280" />
    </marker>
  </defs>

  <!-- Background -->
  <rect width="1600" height="1200" fill="#f9fafb"/>

  <!-- Main Title -->
  <text x="800" y="30" text-anchor="middle" class="title-text">Licence IQ Research Platform - Complete End-to-End Journey</text>
  <text x="800" y="50" text-anchor="middle" class="subtitle-text">AI-Powered Contract Management with Human-in-Loop Validation &amp; Automated Royalty Processing</text>

  <!-- Row 1: Steps 1-5 -->
  <!-- Step 1: Authentication -->
  <g transform="translate(50, 80)">
    <rect class="screen" width="260" height="160" rx="8"/>
    <text x="130" y="18" text-anchor="middle" class="header-text">1. User Authentication</text>
    <rect x="30" y="30" width="200" height="90" rx="6" class="card"/>
    <rect x="90" y="40" width="80" height="20" fill="#1e40af" rx="4"/>
    <text x="130" y="52" text-anchor="middle" class="button-text">Licence IQ</text>
    <text x="130" y="67" text-anchor="middle" class="body-text">Sign In to Platform</text>
    <rect x="50" y="75" width="160" height="15" rx="4" fill="#f9fafb" stroke="#d1d5db"/>
    <text x="55" y="85" class="small-text">Enter username</text>
    <rect x="50" y="95" width="160" height="15" rx="4" fill="#f9fafb" stroke="#d1d5db"/>
    <text x="55" y="105" class="small-text">Enter password</text>
    <rect x="80" y="115" width="80" height="18" rx="6" class="primary-btn"/>
    <text x="120" y="126" text-anchor="middle" class="button-text">Sign In</text>
  </g>

  <!-- Step 2: Dashboard -->
  <g transform="translate(350, 80)">
    <rect class="screen" width="260" height="160" rx="8"/>
    <text x="130" y="18" text-anchor="middle" class="header-text">2. Analytics Dashboard</text>
    <rect x="10" y="25" width="45" height="125" class="sidebar" rx="4"/>
    <text x="32" y="38" text-anchor="middle" class="small-text">📊 Dash</text>
    <text x="32" y="50" text-anchor="middle" class="small-text">📄 Docs</text>
    <text x="32" y="62" text-anchor="middle" class="small-text">📈 Analytics</text>
    <text x="32" y="74" text-anchor="middle" class="small-text">👥 Users</text>
    <rect x="65" y="25" width="185" height="125" class="card" rx="4"/>
    <text x="157" y="40" text-anchor="middle" class="header-text">Contract Overview</text>
    
    <rect x="75" y="50" width="50" height="35" class="card" rx="3"/>
    <text x="100" y="63" text-anchor="middle" class="metric-number">247</text>
    <text x="100" y="75" text-anchor="middle" class="metric-label">Contracts</text>
    
    <rect x="135" y="50" width="45" height="35" class="card" rx="3"/>
    <text x="157" y="63" text-anchor="middle" class="metric-number">94%</text>
    <text x="157" y="75" text-anchor="middle" class="metric-label">AI Accuracy</text>
    
    <rect x="190" y="50" width="50" height="35" class="card" rx="3"/>
    <text x="215" y="63" text-anchor="middle" class="metric-number">$2.4M</text>
    <text x="215" y="75" text-anchor="middle" class="metric-label">Portfolio</text>
    
    <polyline points="75,120 95,110 115,115 135,105 155,110 175,100 195,105 215,95 235,100" 
              stroke="#3b82f6" stroke-width="2" fill="none"/>
    <text x="157" y="140" text-anchor="middle" class="small-text">Performance Trends</text>
  </g>

  <!-- Step 3: Upload -->
  <g transform="translate(650, 80)">
    <rect class="screen" width="260" height="160" rx="8"/>
    <text x="130" y="18" text-anchor="middle" class="header-text">3. Contract Upload</text>
    <rect x="30" y="30" width="200" height="70" rx="6" fill="#f0f9ff" stroke="#3b82f6" stroke-dasharray="5,5"/>
    
    <g transform="translate(130, 55)">
      <rect x="-12" y="-6" width="24" height="12" fill="#3b82f6" rx="2"/>
      <polygon points="-4,-2 4,-2 0,-6" fill="white"/>
      <rect x="-2" y="-2" width="4" height="6" fill="white"/>
    </g>
    
    <text x="130" y="75" text-anchor="middle" class="body-text">Drop PDF Files Here</text>
    <text x="130" y="88" text-anchor="middle" class="small-text">or click to select files</text>
    <rect x="70" y="105" width="120" height="16" rx="4" class="primary-btn"/>
    <text x="130" y="115" text-anchor="middle" class="button-text">Browse Files</text>
    
    <rect x="30" y="125" width="200" height="20" class="card" rx="4"/>
    <rect x="35" y="130" width="20" height="10" fill="#ef4444" rx="2"/>
    <text x="45" y="137" text-anchor="middle" class="button-text" font-size="6px">PDF</text>
    <text x="65" y="137" class="small-text">contract_agreement.pdf</text>
    <rect x="180" y="131" width="35" height="8" rx="4" class="success"/>
    <text x="197" y="136" text-anchor="middle" class="button-text" font-size="6px">✓ Ready</text>
  </g>

  <!-- Step 4: AI Processing -->
  <g transform="translate(950, 80)">
    <rect class="screen" width="260" height="160" rx="8"/>
    <text x="130" y="18" text-anchor="middle" class="header-text">4. AI Analysis</text>
    <rect x="30" y="30" width="200" height="90" class="card" rx="6"/>
    
    <g transform="translate(130, 55)">
      <circle cx="0" cy="0" r="12" fill="#3b82f6"/>
      <text x="0" y="4" text-anchor="middle" class="button-text" font-size="10px">🤖</text>
    </g>
    
    <text x="130" y="80" text-anchor="middle" class="body-text">LLaMA 3.1 8B Analysis...</text>
    <rect x="50" y="90" width="160" height="6" class="progress-bg" rx="3"/>
    <rect x="50" y="90" width="112" height="6" class="progress-bar" rx="3"/>
    <text x="130" y="107" text-anchor="middle" class="small-text">70% Complete - 45s remaining</text>
    
    <circle cx="55" cy="120" r="4" class="success"/>
    <text x="65" y="124" class="small-text">✓ Document Extraction</text>
    <circle cx="55" cy="135" r="4" class="primary-btn"/>
    <text x="65" y="139" class="small-text">⟳ AI Content Analysis</text>
  </g>

  <!-- Step 5: Results -->
  <g transform="translate(1250, 80)">
    <rect class="screen" width="260" height="160" rx="8"/>
    <text x="130" y="18" text-anchor="middle" class="header-text">5. Analysis Results</text>
    <rect x="20" y="28" width="220" height="35" class="card" rx="6"/>
    <text x="30" y="40" class="header-text">Contract Summary</text>
    <text x="30" y="52" class="body-text">Service Agreement - $125,000</text>
    <rect x="180" y="30" width="40" height="15" class="success" rx="7"/>
    <text x="200" y="40" text-anchor="middle" class="button-text" font-size="8px">94%</text>
    
    <rect x="20" y="70" width="100" height="65" class="card" rx="6"/>
    <text x="25" y="83" class="header-text" font-size="12px">📋 Key Terms</text>
    <text x="25" y="95" class="small-text">• Payment: Net 30</text>
    <text x="25" y="105" class="small-text">• Term: 3 years</text>
    <text x="25" y="115" class="small-text">• Renewal: Auto</text>
    <text x="25" y="125" class="small-text">• Support: 24/7</text>
    
    <rect x="130" y="70" width="110" height="65" class="card" rx="6"/>
    <text x="135" y="83" class="header-text" font-size="12px">⚠️ Risk Assessment</text>
    <rect x="135" y="90" width="70" height="12" class="warning" rx="6"/>
    <text x="170" y="98" text-anchor="middle" class="small-text" fill="white">Medium Risk</text>
    <text x="135" y="112" class="small-text">• High penalty clauses</text>
    <text x="135" y="122" class="small-text">• Limited liability</text>
    <text x="135" y="132" class="small-text">• Review recommended</text>
  </g>

  <!-- Flow Arrows Row 1 -->
  <line x1="320" y1="160" x2="340" y2="160" class="arrow"/>
  <line x1="620" y1="160" x2="640" y2="160" class="arrow"/>
  <line x1="920" y1="160" x2="940" y2="160" class="arrow"/>
  <line x1="1220" y1="160" x2="1240" y2="160" class="arrow"/>

  <!-- Row 2: Steps 6-10 -->
  <!-- Step 6: Advanced Analytics -->
  <g transform="translate(50, 280)">
    <rect class="screen" width="260" height="160" rx="8"/>
    <text x="130" y="18" text-anchor="middle" class="header-text">6. Advanced Analytics</text>
    <rect x="20" y="28" width="45" height="15" class="primary-btn" rx="4"/>
    <text x="42" y="37" text-anchor="middle" class="button-text" font-size="8px">Financial</text>
    <rect x="70" y="28" width="35" height="15" class="secondary-btn" rx="4"/>
    <text x="87" y="37" text-anchor="middle" class="nav-text" font-size="8px">Risk</text>
    <rect x="110" y="28" width="40" height="15" class="secondary-btn" rx="4"/>
    <text x="130" y="37" text-anchor="middle" class="nav-text" font-size="8px">Portfolio</text>
    <rect x="155" y="28" width="35" height="15" class="secondary-btn" rx="4"/>
    <text x="172" y="37" text-anchor="middle" class="nav-text" font-size="8px">Trends</text>
    
    <rect x="20" y="50" width="220" height="85" class="card" rx="6"/>
    <text x="130" y="63" text-anchor="middle" class="header-text">Financial Performance</text>
    
    <rect x="30" y="70" width="60" height="30" fill="#f0fdf4" stroke="#10b981" rx="4"/>
    <text x="60" y="82" text-anchor="middle" class="metric-number" fill="#10b981">$2.4M</text>
    <text x="60" y="92" text-anchor="middle" class="metric-label">Total Value</text>
    
    <rect x="100" y="70" width="55" height="30" fill="#fefce8" stroke="#f59e0b" rx="4"/>
    <text x="127" y="82" text-anchor="middle" class="metric-number" fill="#f59e0b">$180K</text>
    <text x="127" y="92" text-anchor="middle" class="metric-label">At Risk</text>
    
    <rect x="165" y="70" width="60" height="30" fill="#f0f9ff" stroke="#3b82f6" rx="4"/>
    <text x="195" y="82" text-anchor="middle" class="metric-number" fill="#3b82f6">15%</text>
    <text x="195" y="92" text-anchor="middle" class="metric-label">Savings</text>
    
    <rect x="30" y="110" width="195" height="20" fill="#f8fafc" stroke="#e5e7eb" rx="4"/>
    <text x="127" y="122" text-anchor="middle" class="body-text">Performance Trends Chart</text>
    <polyline points="35,145 55,140 75,142 95,138 115,140 135,135 155,138 175,133 195,135 215,130" 
              stroke="#10b981" stroke-width="2" fill="none"/>
  </g>

  <!-- Step 7: User Management -->
  <g transform="translate(350, 280)">
    <rect class="screen" width="260" height="160" rx="8"/>
    <text x="130" y="18" text-anchor="middle" class="header-text">7. User Management</text>
    <rect x="170" y="25" width="70" height="15" class="primary-btn" rx="4"/>
    <text x="205" y="34" text-anchor="middle" class="button-text" font-size="8px">+ Create User</text>
    
    <rect x="20" y="45" width="220" height="15" fill="#f8fafc" stroke="#e5e7eb" rx="4"/>
    <text x="25" y="54" class="small-text">Name</text>
    <text x="70" y="54" class="small-text">Role</text>
    <text x="110" y="54" class="small-text">Email</text>
    <text x="170" y="54" class="small-text">Status</text>
    <text x="210" y="54" text-anchor="middle" class="small-text">Actions</text>
    
    <rect x="20" y="65" width="220" height="15" class="card" rx="4"/>
    <text x="25" y="74" class="small-text">John Smith</text>
    <text x="70" y="74" class="small-text">Admin</text>
    <text x="110" y="74" class="small-text">john@co.com</text>
    <circle cx="180" cy="71" r="2" class="success"/>
    <text x="190" y="74" class="small-text">Active</text>
    <rect x="210" y="68" width="20" height="8" class="primary-btn" rx="2"/>
    <text x="220" y="73" text-anchor="middle" class="small-text" fill="white" font-size="6px">Edit</text>
    
    <!-- Inline Editing Panel -->
    <rect x="20" y="85" width="220" height="40" class="human-review" rx="4"/>
    <text x="25" y="97" class="small-text" font-weight="600">✨ Popup-Free Editing: Sarah</text>
    <rect x="25" y="102" width="30" height="10" class="primary-btn" rx="2"/>
    <text x="40" y="108" text-anchor="middle" class="small-text" fill="white" font-size="7px">Profile</text>
    <rect x="60" y="102" width="35" height="10" class="secondary-btn" rx="2"/>
    <text x="77" y="108" text-anchor="middle" class="small-text" font-size="7px">Password</text>
    
    <rect x="25" y="115" width="60" height="8" fill="white" stroke="#d1d5db" rx="2"/>
    <text x="28" y="120" class="small-text" font-size="7px">First: Sarah</text>
    <rect x="90" y="115" width="60" height="8" fill="white" stroke="#d1d5db" rx="2"/>
    <text x="93" y="120" class="small-text" font-size="7px">Last: Johnson</text>
    <rect x="155" y="115" width="30" height="8" class="primary-btn" rx="2"/>
    <text x="170" y="120" text-anchor="middle" class="small-text" fill="white" font-size="7px">Save</text>
    <rect x="190" y="115" width="20" height="8" class="secondary-btn" rx="2"/>
    <text x="200" y="120" text-anchor="middle" class="small-text" font-size="7px">ESC</text>
    
    <rect x="20" y="135" width="220" height="12" fill="#f0fdf4" stroke="#10b981" rx="4"/>
    <text x="130" y="143" text-anchor="middle" class="body-text" fill="#10b981" font-size="8px">✓ No Popup Dialogs - Smooth UX</text>
  </g>

  <!-- Step 8: Reports -->
  <g transform="translate(650, 280)">
    <rect class="screen" width="260" height="160" rx="8"/>
    <text x="130" y="18" text-anchor="middle" class="header-text">8. Reports &amp; Audit</text>
    <rect x="20" y="28" width="100" height="50" class="card" rx="6"/>
    <text x="70" y="40" text-anchor="middle" class="body-text">📊 Reports</text>
    <rect x="25" y="45" width="90" height="10" class="secondary-btn" rx="2"/>
    <text x="70" y="51" text-anchor="middle" class="small-text" font-size="7px">Financial Performance</text>
    <rect x="25" y="58" width="90" height="10" class="secondary-btn" rx="2"/>
    <text x="70" y="64" text-anchor="middle" class="small-text" font-size="7px">Risk Assessment</text>
    <rect x="25" y="71" width="90" height="6" class="secondary-btn" rx="2"/>
    <text x="70" y="75" text-anchor="middle" class="small-text" font-size="6px">Compliance</text>
    
    <rect x="135" y="28" width="105" height="50" class="card" rx="6"/>
    <text x="187" y="40" text-anchor="middle" class="body-text">🔍 Activity</text>
    <text x="140" y="48" class="small-text" font-size="7px">2:45 PM - User login</text>
    <text x="140" y="56" class="small-text" font-size="7px">2:50 PM - Contract upload</text>
    <text x="140" y="64" class="small-text" font-size="7px">3:15 PM - AI complete</text>
    <text x="140" y="72" class="small-text" font-size="7px">3:20 PM - Report generated</text>
    
    <rect x="20" y="85" width="220" height="25" class="card" rx="6"/>
    <text x="25" y="95" class="body-text">📥 Export Options</text>
    <rect x="25" y="100" width="25" height="6" class="success" rx="2"/>
    <text x="37" y="104" text-anchor="middle" class="small-text" fill="white" font-size="6px">PDF</text>
    <rect x="55" y="100" width="25" height="6" class="primary-btn" rx="2"/>
    <text x="67" y="104" text-anchor="middle" class="small-text" fill="white" font-size="6px">Excel</text>
    <rect x="85" y="100" width="25" height="6" class="warning" rx="2"/>
    <text x="97" y="104" text-anchor="middle" class="small-text" fill="white" font-size="6px">CSV</text>
    <rect x="115" y="100" width="30" height="6" class="secondary-btn" rx="2"/>
    <text x="130" y="104" text-anchor="middle" class="small-text" font-size="6px">Schedule</text>
    
    <rect x="20" y="120" width="220" height="15" fill="#f0fdf4" stroke="#10b981" rx="6"/>
    <text x="130" y="130" text-anchor="middle" class="body-text" fill="#10b981" font-size="8px">✅ All Systems Compliant</text>
  </g>

  <!-- Step 9: Human-in-Loop -->
  <g transform="translate(950, 280)">
    <rect class="screen" width="260" height="160" rx="8"/>
    <text x="130" y="18" text-anchor="middle" class="header-text">9. Human-in-Loop</text>
    <rect x="20" y="28" width="110" height="42" class="card" rx="6"/>
    <text x="25" y="40" class="header-text" font-size="12px">🤖 AI Analysis</text>
    <text x="25" y="50" class="small-text">• Risk Level: Medium</text>
    <text x="25" y="58" class="small-text">• 2 items flagged</text>
    <rect x="100" y="32" width="25" height="10" class="warning" rx="5"/>
    <text x="112" y="38" text-anchor="middle" class="small-text" fill="white" font-size="6px">Review</text>
    
    <rect x="140" y="28" width="100" height="42" class="human-review" rx="6"/>
    <text x="145" y="40" class="header-text" font-size="12px">👤 Expert Review</text>
    <text x="145" y="50" class="small-text">Ambiguous clauses:</text>
    <rect x="150" y="55" width="5" height="5" class="warning" rx="2"/>
    <text x="160" y="59" class="small-text" font-size="7px">Penalty clause (85%)</text>
    <rect x="150" y="63" width="5" height="5" class="success" rx="2"/>
    <text x="160" y="67" class="small-text" font-size="7px">Payment terms ✓</text>
    
    <rect x="20" y="80" width="220" height="40" class="card" rx="6"/>
    <text x="25" y="92" class="header-text" font-size="12px">📝 Review Interface</text>
    <rect x="25" y="97" width="85" height="18" fill="#f8fafc" stroke="#e5e7eb" rx="4"/>
    <text x="28" y="104" class="small-text" font-size="7px">Clause Review:</text>
    <text x="28" y="111" class="small-text" font-size="7px">"90-day notice required"</text>
    
    <rect x="120" y="97" width="110" height="18" fill="#f0f9ff" stroke="#3b82f6" rx="4"/>
    <text x="125" y="104" class="small-text" font-size="7px">Expert Validation:</text>
    <rect x="125" y="108" width="20" height="6" class="success" rx="3"/>
    <text x="135" y="112" text-anchor="middle" class="small-text" fill="white" font-size="6px">✓ Confirm</text>
    <rect x="150" y="108" width="20" height="6" class="warning" rx="3"/>
    <text x="160" y="112" text-anchor="middle" class="small-text" fill="white" font-size="6px">⚠ Modify</text>
    
    <rect x="20" y="130" width="220" height="15" fill="#fef3c7" stroke="#f59e0b" rx="6"/>
    <text x="130" y="140" text-anchor="middle" class="body-text" fill="#f59e0b" font-size="8px">🧠 Human-AI Collaboration</text>
  </g>

  <!-- Step 10: Royalty Calculations -->
  <g transform="translate(1250, 280)">
    <rect class="screen" width="260" height="160" rx="8"/>
    <text x="130" y="18" text-anchor="middle" class="header-text">10. Royalty Calculations</text>
    <rect x="20" y="28" width="105" height="45" class="ai-rules" rx="6"/>
    <text x="25" y="40" class="header-text" font-size="12px">🤖 AI Rules</text>
    <rect x="28" y="45" width="5" height="5" class="success" rx="2"/>
    <text x="38" y="49" class="small-text" font-size="7px">Streaming: 15%</text>
    <rect x="28" y="53" width="5" height="5" class="success" rx="2"/>
    <text x="38" y="57" class="small-text" font-size="7px">Physical: 12%</text>
    <rect x="28" y="61" width="5" height="5" class="warning" rx="2"/>
    <text x="38" y="65" class="small-text" font-size="7px">Sync: 50% split</text>
    <rect x="90" y="32" width="30" height="10" class="success" rx="5"/>
    <text x="105" y="38" text-anchor="middle" class="small-text" fill="white" font-size="6px">92% Confident</text>
    
    <rect x="135" y="28" width="105" height="45" class="card" rx="6"/>
    <text x="187" y="40" text-anchor="middle" class="header-text" font-size="12px">📊 Live Totals</text>
    <rect x="142" y="45" width="90" height="6" fill="#f0fdf4" stroke="#10b981" rx="2"/>
    <text x="147" y="49" class="small-text" font-size="7px">Streaming:</text>
    <text x="220" y="49" text-anchor="end" class="body-text" fill="#10b981" font-size="8px">$18,450</text>
    <rect x="142" y="53" width="90" height="6" fill="#f0f9ff" stroke="#3b82f6" rx="2"/>
    <text x="147" y="57" class="small-text" font-size="7px">Physical:</text>
    <text x="220" y="57" text-anchor="end" class="body-text" fill="#3b82f6" font-size="8px">$7,230</text>
    <rect x="142" y="61" width="90" height="6" fill="#1e40af" rx="2"/>
    <text x="147" y="65" class="small-text" fill="white" font-size="7px">Total:</text>
    <text x="220" y="65" text-anchor="end" class="body-text" fill="white" font-size="8px">$38,180</text>
    
    <rect x="20" y="82" width="220" height="35" class="card" rx="6"/>
    <text x="25" y="94" class="header-text" font-size="12px">⚡ Processing Engine</text>
    <rect x="25" y="100" width="60" height="12" fill="#f8fafc" stroke="#e5e7eb" rx="4"/>
    <text x="28" y="105" class="small-text" font-size="7px">1. Extract</text>
    <text x="28" y="111" class="small-text" font-size="7px">Clauses</text>
    <rect x="95" y="100" width="60" height="12" fill="#f8fafc" stroke="#e5e7eb" rx="4"/>
    <text x="98" y="105" class="small-text" font-size="7px">2. Generate</text>
    <text x="98" y="111" class="small-text" font-size="7px">Rules</text>
    <rect x="165" y="100" width="60" height="12" fill="#f8fafc" stroke="#e5e7eb" rx="4"/>
    <text x="168" y="105" class="small-text" font-size="7px">3. Calculate</text>
    <text x="168" y="111" class="small-text" font-size="7px">Totals</text>
    
    <rect x="20" y="125" width="220" height="15" fill="#f0f9ff" stroke="#3b82f6" rx="6"/>
    <text x="130" y="135" text-anchor="middle" class="body-text" fill="#3b82f6" font-size="8px">💰 Automated Royalty Processing</text>
  </g>

  <!-- Flow Arrows Row 2 -->
  <line x1="320" y1="360" x2="340" y2="360" class="arrow"/>
  <line x1="620" y1="360" x2="640" y2="360" class="arrow"/>
  <line x1="920" y1="360" x2="940" y2="360" class="arrow"/>
  <line x1="1220" y1="360" x2="1240" y2="360" class="arrow"/>

  <!-- Key Features Section -->
  <g transform="translate(50, 470)">
    <text x="750" y="20" text-anchor="middle" class="title-text">Enhanced Platform Capabilities &amp; Innovation</text>
    
    <!-- Feature 1: AI Analysis -->
    <rect x="0" y="30" width="320" height="75" class="card" rx="8"/>
    <rect x="15" y="42" width="25" height="25" class="primary-btn" rx="12"/>
    <text x="27" y="57" text-anchor="middle" class="button-text" font-size="12px">🤖</text>
    <text x="50" y="52" class="header-text">AI-Powered Contract Intelligence</text>
    <text x="50" y="64" class="body-text">• LLaMA 3.1 8B Instant model for advanced analysis</text>
    <text x="50" y="75" class="body-text">• 94% accuracy in legal term extraction</text>
    <text x="50" y="86" class="body-text">• Real-time risk assessment &amp; compliance checking</text>
    <text x="50" y="97" class="body-text">• Automated contract summarization &amp; insights</text>
    
    <!-- Feature 2: Human-in-Loop -->
    <rect x="340" y="30" width="320" height="75" class="card" rx="8"/>
    <rect x="355" y="42" width="25" height="25" class="warning" rx="12"/>
    <text x="367" y="57" text-anchor="middle" class="button-text" font-size="12px">👤</text>
    <text x="390" y="52" class="header-text">Human-in-Loop Expert Validation</text>
    <text x="390" y="64" class="body-text">• Expert review for complex legal interpretations</text>
    <text x="390" y="75" class="body-text">• Auto-escalation for low-confidence AI analysis</text>
    <text x="390" y="86" class="body-text">• Continuous learning from human feedback</text>
    <text x="390" y="97" class="body-text">• Risk mitigation through expert oversight</text>
    
    <!-- Feature 3: Royalty Engine -->
    <rect x="680" y="30" width="320" height="75" class="card" rx="8"/>
    <rect x="695" y="42" width="25" height="25" class="success" rx="12"/>
    <text x="707" y="57" text-anchor="middle" class="button-text" font-size="12px">💰</text>
    <text x="730" y="52" class="header-text">Dynamic Royalty Processing Engine</text>
    <text x="730" y="64" class="body-text">• AI-generated calculation rules from contracts</text>
    <text x="730" y="75" class="body-text">• Real-time revenue tracking &amp; calculations</text>
    <text x="730" y="86" class="body-text">• Multi-source data integration &amp; validation</text>
    <text x="730" y="97" class="body-text">• 95% calculation accuracy with audit trails</text>
    
    <!-- Feature 4: Security -->
    <rect x="1020" y="30" width="320" height="75" class="card" rx="8"/>
    <rect x="1035" y="42" width="25" height="25" fill="#8b5cf6" rx="12"/>
    <text x="1047" y="57" text-anchor="middle" class="button-text" font-size="12px">🔒</text>
    <text x="1070" y="52" class="header-text">Enterprise Security &amp; Compliance</text>
    <text x="1070" y="64" class="body-text">• Role-based access control (RBAC) system</text>
    <text x="1070" y="75" class="body-text">• Complete audit trail logging &amp; monitoring</text>
    <text x="1070" y="86" class="body-text">• Session-based authentication &amp; encryption</text>
    <text x="1070" y="97" class="body-text">• SOC 2 ready with data compliance features</text>
  </g>

  <!-- Technology Stack -->
  <g transform="translate(50, 590)">
    <text x="750" y="20" text-anchor="middle" class="title-text">Technology Stack &amp; System Architecture</text>
    
    <!-- Frontend -->
    <rect x="0" y="30" width="150" height="65" class="card" rx="8"/>
    <text x="75" y="47" text-anchor="middle" class="header-text">Frontend Stack</text>
    <text x="12" y="57" class="body-text">• React + TypeScript</text>
    <text x="12" y="67" class="body-text">• TailwindCSS + shadcn/ui</text>
    <text x="12" y="77" class="body-text">• TanStack Query</text>
    <text x="12" y="87" class="body-text">• Vite Build System</text>
    
    <!-- Backend -->
    <rect x="170" y="30" width="150" height="65" class="card" rx="8"/>
    <text x="245" y="47" text-anchor="middle" class="header-text">Backend Services</text>
    <text x="182" y="57" class="body-text">• Express.js + TypeScript</text>
    <text x="182" y="67" class="body-text">• Session Authentication</text>
    <text x="182" y="77" class="body-text">• RESTful API Design</text>
    <text x="182" y="87" class="body-text">• Middleware Pipeline</text>
    
    <!-- Database -->
    <rect x="340" y="30" width="150" height="65" class="card" rx="8"/>
    <text x="415" y="47" text-anchor="middle" class="header-text">Database Layer</text>
    <text x="352" y="57" class="body-text">• PostgreSQL (Neon)</text>
    <text x="352" y="67" class="body-text">• Drizzle ORM</text>
    <text x="352" y="77" class="body-text">• Type-Safe Queries</text>
    <text x="352" y="87" class="body-text">• Migration System</text>
    
    <!-- AI Services -->
    <rect x="510" y="30" width="150" height="65" class="card" rx="8"/>
    <text x="585" y="47" text-anchor="middle" class="header-text">AI &amp; ML Services</text>
    <text x="522" y="57" class="body-text">• Groq API Integration</text>
    <text x="522" y="67" class="body-text">• LLaMA 3.1 8B Model</text>
    <text x="522" y="77" class="body-text">• Async Processing</text>
    <text x="522" y="87" class="body-text">• Confidence Scoring</text>
    
    <!-- Security -->
    <rect x="680" y="30" width="150" height="65" class="card" rx="8"/>
    <text x="755" y="47" text-anchor="middle" class="header-text">Security Features</text>
    <text x="692" y="57" class="body-text">• RBAC Authentication</text>
    <text x="692" y="67" class="body-text">• Audit Trail Logging</text>
    <text x="692" y="77" class="body-text">• Data Encryption</text>
    <text x="692" y="87" class="body-text">• Compliance Ready</text>
    
    <!-- Innovation -->
    <rect x="850" y="30" width="150" height="65" class="card" rx="8"/>
    <text x="925" y="47" text-anchor="middle" class="header-text">Innovation Layer</text>
    <text x="862" y="57" class="body-text">• Popup-Free UI</text>
    <text x="862" y="67" class="body-text">• Human-AI Hybrid</text>
    <text x="862" y="77" class="body-text">• Dynamic Royalties</text>
    <text x="862" y="87" class="body-text">• Smart Workflows</text>
  </g>

  <!-- Business Impact Section -->
  <g transform="translate(50, 700)">
    <text x="750" y="20" text-anchor="middle" class="title-text">Business Impact &amp; Return on Investment</text>
    
    <rect x="0" y="30" width="260" height="55" fill="#f0fdf4" stroke="#10b981" rx="8"/>
    <text x="130" y="47" text-anchor="middle" class="header-text" fill="#10b981">80% Time Reduction</text>
    <text x="130" y="60" text-anchor="middle" class="body-text">Contract analysis automation eliminates</text>
    <text x="130" y="71" text-anchor="middle" class="body-text">manual review processes completely</text>
    <text x="130" y="82" text-anchor="middle" class="body-text">Average: 4 hours → 45 minutes</text>
    
    <rect x="280" y="30" width="260" height="55" fill="#fef3c7" stroke="#f59e0b" rx="8"/>
    <text x="410" y="47" text-anchor="middle" class="header-text" fill="#f59e0b">95% Risk Detection Accuracy</text>
    <text x="410" y="60" text-anchor="middle" class="body-text">AI-powered risk assessment with</text>
    <text x="410" y="71" text-anchor="middle" class="body-text">human expert validation workflow</text>
    <text x="410" y="82" text-anchor="middle" class="body-text">Critical issue detection: 99.2%</text>
    
    <rect x="560" y="30" width="260" height="55" fill="#f0f9ff" stroke="#3b82f6" rx="8"/>
    <text x="690" y="47" text-anchor="middle" class="header-text" fill="#3b82f6">$2M+ Portfolio Analytics</text>
    <text x="690" y="60" text-anchor="middle" class="body-text">Comprehensive contract portfolio</text>
    <text x="690" y="71" text-anchor="middle" class="body-text">management with automated royalty</text>
    <text x="690" y="82" text-anchor="middle" class="body-text">calculations &amp; revenue tracking</text>
    
    <rect x="840" y="30" width="260" height="55" fill="#fdf2f8" stroke="#ec4899" rx="8"/>
    <text x="970" y="47" text-anchor="middle" class="header-text" fill="#ec4899">Enterprise Scale Ready</text>
    <text x="970" y="60" text-anchor="middle" class="body-text">Role-based security, comprehensive</text>
    <text x="970" y="71" text-anchor="middle" class="body-text">audit trails, and compliance reporting</text>
    <text x="970" y="82" text-anchor="middle" class="body-text">SOC 2 Type II compliant architecture</text>
  </g>

  <!-- Summary Section -->
  <g transform="translate(100, 800)">
    <rect x="0" y="0" width="1400" height="60" fill="#f8fafc" stroke="#e5e7eb" rx="30"/>
    <text x="700" y="20" text-anchor="middle" class="title-text">Complete AI-Powered Contract Intelligence Solution</text>
    <text x="700" y="40" text-anchor="middle" class="body-text">Advanced Document Analysis • Human-AI Collaboration • Automated Royalty Processing • Enterprise Security</text>
    <text x="700" y="52" text-anchor="middle" class="small-text">15,000+ documents processed | 99.8% accuracy | 24/7 monitoring | Zero popup dialogs</text>
  </g>

  <!-- Footer -->
  <text x="800" y="900" text-anchor="middle" class="small-text">© 2024 Licence IQ Research Platform - Revolutionary Contract Management &amp; Analysis Platform</text>
</svg>