<svg xmlns="http://www.w3.org/2000/svg" viewBox="0 0 1800 1400">
  <defs>
    <style>
      .title-text { font-family: 'Segoe UI', Arial, sans-serif; font-size: 28px; font-weight: bold; fill: #1e40af; }
      .subtitle-text { font-family: 'Segoe UI', Arial, sans-serif; font-size: 16px; fill: #6b7280; }
      .header-text { font-family: 'Segoe UI', Arial, sans-serif; font-size: 16px; font-weight: 600; fill: #1f2937; }
      .body-text { font-family: 'Segoe UI', Arial, sans-serif; font-size: 12px; fill: #374151; }
      .small-text { font-family: 'Segoe UI', Arial, sans-serif; font-size: 10px; fill: #6b7280; }
      .button-text { font-family: 'Segoe UI', Arial, sans-serif; font-size: 12px; font-weight: 600; fill: white; }
      .nav-text { font-family: 'Segoe UI', Arial, sans-serif; font-size: 12px; fill: #374151; }
      .metric-number { font-family: 'Segoe UI', Arial, sans-serif; font-size: 20px; font-weight: bold; fill: #1e40af; }
      .metric-label { font-family: 'Segoe UI', Arial, sans-serif; font-size: 12px; fill: #6b7280; }
      
      .screen { stroke: #e5e7eb; stroke-width: 2; fill: white; }
      .primary-btn { fill: #3b82f6; stroke: none; }
      .secondary-btn { fill: #e5e7eb; stroke: #d1d5db; }
      .sidebar { fill: #f8fafc; stroke: #e5e7eb; }
      .card { fill: white; stroke: #e5e7eb; }
      .progress-bar { fill: #3b82f6; }
      .progress-bg { fill: #e5e7eb; }
      .success { fill: #10b981; }
      .warning { fill: #f59e0b; }
      .danger { fill: #ef4444; }
      .arrow { stroke: #6b7280; stroke-width: 2; fill: none; marker-end: url(#arrowhead); }
      .human-review { fill: #fef3c7; stroke: #f59e0b; }
      .ai-rules { fill: #f0f9ff; stroke: #3b82f6; }
    </style>
    
    <marker id="arrowhead" markerWidth="10" markerHeight="7" refX="10" refY="3.5" orient="auto">
      <polygon points="0 0, 10 3.5, 0 7" fill="#6b7280" />
    </marker>
  </defs>

  <!-- Background -->
  <rect width="1800" height="1400" fill="#f9fafb"/>

  <!-- Main Title -->
  <text x="900" y="40" text-anchor="middle" class="title-text">Licence IQ Research Platform - Complete End-to-End Journey</text>
  <text x="900" y="65" text-anchor="middle" class="subtitle-text">AI-Powered Contract Management &amp; Analysis with Human-in-Loop &amp; Automated Royalty Processing</text>

  <!-- Row 1: Steps 1-5 -->
  <!-- Step 1: Authentication -->
  <g transform="translate(50, 100)">
    <rect class="screen" width="280" height="180" rx="8"/>
    <text x="140" y="20" text-anchor="middle" class="header-text">1. User Authentication</text>
    <rect x="30" y="40" width="220" height="100" rx="6" class="card"/>
    <rect x="100" y="50" width="80" height="25" fill="#1e40af" rx="4"/>
    <text x="140" y="65" text-anchor="middle" class="button-text">Licence IQ</text>
    <text x="140" y="85" text-anchor="middle" class="body-text">Sign In to Platform</text>
    <rect x="50" y="95" width="180" height="18" rx="4" fill="#f9fafb" stroke="#d1d5db"/>
    <text x="55" y="106" class="small-text">Enter username</text>
    <rect x="50" y="115" width="180" height="18" rx="4" fill="#f9fafb" stroke="#d1d5db"/>
    <text x="55" y="126" class="small-text">Enter password</text>
    <rect x="90" y="140" width="100" height="22" rx="6" class="primary-btn"/>
    <text x="140" y="153" text-anchor="middle" class="button-text">Sign In</text>
  </g>

  <!-- Step 2: Dashboard -->
  <g transform="translate(380, 100)">
    <rect class="screen" width="280" height="180" rx="8"/>
    <text x="140" y="20" text-anchor="middle" class="header-text">2. Analytics Dashboard</text>
    <rect x="10" y="30" width="50" height="140" class="sidebar" rx="4"/>
    <text x="35" y="45" text-anchor="middle" class="small-text">📊 Dashboard</text>
    <text x="35" y="60" text-anchor="middle" class="small-text">📄 Contracts</text>
    <text x="35" y="75" text-anchor="middle" class="small-text">📈 Analytics</text>
    <text x="35" y="90" text-anchor="middle" class="small-text">👥 Users</text>
    <rect x="70" y="30" width="200" height="140" class="card" rx="4"/>
    <text x="170" y="50" text-anchor="middle" class="header-text">Contract Overview</text>
    <rect x="85" y="60" width="60" height="40" class="card" rx="3"/>
    <text x="115" y="75" text-anchor="middle" class="metric-number">247</text>
    <text x="115" y="90" text-anchor="middle" class="metric-label">Total Contracts</text>
    <rect x="155" y="60" width="50" height="40" class="card" rx="3"/>
    <text x="180" y="75" text-anchor="middle" class="metric-number">94%</text>
    <text x="180" y="90" text-anchor="middle" class="metric-label">AI Accuracy</text>
    <rect x="215" y="60" width="45" height="40" class="card" rx="3"/>
    <text x="237" y="75" text-anchor="middle" class="metric-number">$2.4M</text>
    <text x="237" y="90" text-anchor="middle" class="metric-label">Portfolio</text>
    <polyline points="85,130 105,120 125,125 145,115 165,120 185,110 205,115 225,105 245,110" 
              stroke="#3b82f6" stroke-width="2" fill="none"/>
    <text x="170" y="155" text-anchor="middle" class="small-text">Performance Trends</text>
  </g>

  <!-- Step 3: Upload -->
  <g transform="translate(710, 100)">
    <rect class="screen" width="280" height="180" rx="8"/>
    <text x="140" y="20" text-anchor="middle" class="header-text">3. Contract Upload</text>
    <rect x="30" y="40" width="220" height="80" rx="6" fill="#f0f9ff" stroke="#3b82f6" stroke-dasharray="5,5"/>
    <g transform="translate(140, 65)">
      <rect x="-15" y="-8" width="30" height="16" fill="#3b82f6" rx="2"/>
      <polygon points="-5,-3 5,-3 0,-8" fill="white"/>
      <rect x="-2" y="-3" width="4" height="8" fill="white"/>
    </g>
    <text x="140" y="85" text-anchor="middle" class="body-text">Drop PDF Files Here</text>
    <text x="140" y="100" text-anchor="middle" class="small-text">or click to select files</text>
    <rect x="80" y="110" width="120" height="20" rx="4" class="primary-btn"/>
    <text x="140" y="122" text-anchor="middle" class="button-text">Browse Files</text>
    <rect x="30" y="140" width="220" height="25" class="card" rx="4"/>
    <rect x="40" y="147" width="25" height="12" fill="#ef4444" rx="2"/>
    <text x="52" y="155" text-anchor="middle" class="button-text" font-size="8px">PDF</text>
    <text x="75" y="155" class="small-text">contract_agreement.pdf - 2.4MB</text>
    <rect x="200" y="148" width="40" height="10" rx="5" class="success"/>
    <text x="220" y="155" text-anchor="middle" class="button-text" font-size="8px">✓ Ready</text>
  </g>

  <!-- Step 4: AI Processing -->
  <g transform="translate(1040, 100)">
    <rect class="screen" width="280" height="180" rx="8"/>
    <text x="140" y="20" text-anchor="middle" class="header-text">4. AI Analysis Processing</text>
    <rect x="30" y="40" width="220" height="100" class="card" rx="6"/>
    <g transform="translate(140, 70)">
      <circle cx="0" cy="0" r="15" fill="#3b82f6"/>
      <text x="0" y="5" text-anchor="middle" class="button-text" font-size="12px">🤖</text>
    </g>
    <text x="140" y="100" text-anchor="middle" class="body-text">LLaMA 3.1 8B Analysis...</text>
    <rect x="50" y="110" width="180" height="8" class="progress-bg" rx="4"/>
    <rect x="50" y="110" width="126" height="8" class="progress-bar" rx="4"/>
    <text x="140" y="130" text-anchor="middle" class="small-text">70% Complete - 45 seconds remaining</text>
    <circle cx="60" cy="150" r="5" class="success"/>
    <text x="70" y="154" class="small-text">✓ Document Extraction</text>
    <circle cx="60" cy="165" r="5" class="primary-btn"/>
    <text x="70" y="169" class="small-text">⟳ AI Content Analysis</text>
  </g>

  <!-- Step 5: Results -->
  <g transform="translate(1370, 100)">
    <rect class="screen" width="280" height="180" rx="8"/>
    <text x="140" y="20" text-anchor="middle" class="header-text">5. Analysis Results</text>
    <rect x="20" y="35" width="240" height="45" class="card" rx="6"/>
    <text x="30" y="50" class="header-text">Contract Summary</text>
    <text x="30" y="65" class="body-text">Service Agreement - $125,000 - 3 years</text>
    <rect x="200" y="40" width="50" height="20" class="success" rx="10"/>
    <text x="225" y="52" text-anchor="middle" class="button-text">94%</text>
    <rect x="20" y="90" width="110" height="80" class="card" rx="6"/>
    <text x="30" y="105" class="header-text">📋 Key Terms</text>
    <text x="30" y="120" class="small-text">• Payment: Net 30</text>
    <text x="30" y="132" class="small-text">• Term: 36 months</text>
    <text x="30" y="144" class="small-text">• Auto-renewal: Yes</text>
    <text x="30" y="156" class="small-text">• Support: 24/7</text>
    <rect x="140" y="90" width="120" height="80" class="card" rx="6"/>
    <text x="150" y="105" class="header-text">⚠️ Risk Assessment</text>
    <rect x="150" y="115" width="80" height="15" class="warning" rx="8"/>
    <text x="190" y="125" text-anchor="middle" class="button-text" font-size="10px">Medium Risk</text>
    <text x="150" y="142" class="small-text">• High penalty clauses</text>
    <text x="150" y="154" class="small-text">• Limited liability cap</text>
    <text x="150" y="166" class="small-text">• Review recommended</text>
  </g>

  <!-- Flow Arrows Row 1 -->
  <line x1="340" y1="190" x2="370" y2="190" class="arrow"/>
  <line x1="670" y1="190" x2="700" y2="190" class="arrow"/>
  <line x1="1000" y1="190" x2="1030" y2="190" class="arrow"/>
  <line x1="1330" y1="190" x2="1360" y2="190" class="arrow"/>

  <!-- Row 2: Steps 6-10 -->
  <!-- Step 6: Advanced Analytics -->
  <g transform="translate(50, 320)">
    <rect class="screen" width="280" height="180" rx="8"/>
    <text x="140" y="20" text-anchor="middle" class="header-text">6. Advanced Analytics</text>
    <rect x="20" y="35" width="50" height="18" class="primary-btn" rx="4"/>
    <text x="45" y="46" text-anchor="middle" class="button-text">Financial</text>
    <rect x="80" y="35" width="50" height="18" class="secondary-btn" rx="4"/>
    <text x="105" y="46" text-anchor="middle" class="nav-text">Risk</text>
    <rect x="140" y="35" width="50" height="18" class="secondary-btn" rx="4"/>
    <text x="165" y="46" text-anchor="middle" class="nav-text">Portfolio</text>
    <rect x="200" y="35" width="50" height="18" class="secondary-btn" rx="4"/>
    <text x="225" y="46" text-anchor="middle" class="nav-text">Trends</text>
    
    <rect x="20" y="60" width="240" height="105" class="card" rx="6"/>
    <text x="140" y="77" text-anchor="middle" class="header-text">Financial Performance</text>
    <rect x="30" y="85" width="65" height="35" fill="#f0fdf4" stroke="#10b981" rx="4"/>
    <text x="62" y="98" text-anchor="middle" class="metric-number" fill="#10b981">$2.4M</text>
    <text x="62" y="110" text-anchor="middle" class="metric-label">Total Value</text>
    <rect x="105" y="85" width="65" height="35" fill="#fefce8" stroke="#f59e0b" rx="4"/>
    <text x="137" y="98" text-anchor="middle" class="metric-number" fill="#f59e0b">$180K</text>
    <text x="137" y="110" text-anchor="middle" class="metric-label">At Risk</text>
    <rect x="180" y="85" width="65" height="35" fill="#f0f9ff" stroke="#3b82f6" rx="4"/>
    <text x="212" y="98" text-anchor="middle" class="metric-number" fill="#3b82f6">15%</text>
    <text x="212" y="110" text-anchor="middle" class="metric-label">Cost Savings</text>
    
    <rect x="30" y="130" width="215" height="25" fill="#f8fafc" stroke="#e5e7eb" rx="4"/>
    <text x="137" y="145" text-anchor="middle" class="body-text">Performance Trends Chart</text>
    <polyline points="35,155 55,150 75,152 95,148 115,150 135,145 155,148 175,143 195,145 215,140 235,142" 
              stroke="#10b981" stroke-width="2" fill="none"/>
  </g>

  <!-- Step 7: User Management -->
  <g transform="translate(380, 320)">
    <rect class="screen" width="280" height="180" rx="8"/>
    <text x="140" y="20" text-anchor="middle" class="header-text">7. User Management</text>
    <rect x="180" y="30" width="80" height="18" class="primary-btn" rx="4"/>
    <text x="220" y="41" text-anchor="middle" class="button-text">+ Create User</text>
    <rect x="20" y="55" width="240" height="18" fill="#f8fafc" stroke="#e5e7eb" rx="4"/>
    <text x="30" y="66" class="small-text">Name</text>
    <text x="90" y="66" class="small-text">Role</text>
    <text x="140" y="66" class="small-text">Email</text>
    <text x="200" y="66" class="small-text">Status</text>
    <text x="240" y="66" text-anchor="middle" class="small-text">Actions</text>
    
    <rect x="20" y="75" width="240" height="20" class="card" rx="4"/>
    <text x="30" y="87" class="small-text">John Smith</text>
    <text x="90" y="87" class="small-text">Admin</text>
    <text x="140" y="87" class="small-text">john@co.com</text>
    <circle cx="210" cy="84" r="3" class="success"/>
    <text x="220" y="87" class="small-text">Active</text>
    <rect x="240" y="80" width="15" height="10" class="primary-btn" rx="2"/>
    <text x="247" y="87" text-anchor="middle" class="small-text" fill="white">Edit</text>
    
    <!-- Inline Editing Panel -->
    <rect x="20" y="100" width="240" height="50" class="human-review" rx="4"/>
    <text x="25" y="112" class="small-text" font-weight="600">✨ Popup-Free Inline Editing: Sarah Johnson</text>
    <rect x="25" y="118" width="35" height="12" class="primary-btn" rx="2"/>
    <text x="42" y="126" text-anchor="middle" class="small-text" fill="white">Profile</text>
    <rect x="65" y="118" width="40" height="12" class="secondary-btn" rx="2"/>
    <text x="85" y="126" text-anchor="middle" class="small-text">Password</text>
    <rect x="110" y="118" width="35" height="12" class="secondary-btn" rx="2"/>
    <text x="127" y="126" text-anchor="middle" class="small-text">Delete</text>
    
    <rect x="25" y="135" width="70" height="10" fill="white" stroke="#d1d5db" rx="2"/>
    <text x="28" y="142" class="small-text">First: Sarah</text>
    <rect x="100" y="135" width="70" height="10" fill="white" stroke="#d1d5db" rx="2"/>
    <text x="103" y="142" class="small-text">Last: Johnson</text>
    <rect x="175" y="135" width="35" height="10" class="primary-btn" rx="2"/>
    <text x="192" y="142" text-anchor="middle" class="small-text" fill="white">Save</text>
    <rect x="215" y="135" width="25" height="10" class="secondary-btn" rx="2"/>
    <text x="227" y="142" text-anchor="middle" class="small-text">ESC</text>
    
    <rect x="20" y="160" width="240" height="15" fill="#f0fdf4" stroke="#10b981" rx="4"/>
    <text x="140" y="170" text-anchor="middle" class="body-text" fill="#10b981">✓ No Popup Dialogs - Smooth User Experience</text>
  </g>

  <!-- Step 8: Reports -->
  <g transform="translate(710, 320)">
    <rect class="screen" width="280" height="180" rx="8"/>
    <text x="140" y="20" text-anchor="middle" class="header-text">8. Reports &amp; Audit Trail</text>
    <rect x="20" y="35" width="110" height="60" class="card" rx="6"/>
    <text x="75" y="50" text-anchor="middle" class="body-text">📊 Contract Reports</text>
    <rect x="30" y="57" width="90" height="12" class="secondary-btn" rx="2"/>
    <text x="75" y="65" text-anchor="middle" class="small-text">Financial Performance</text>
    <rect x="30" y="72" width="90" height="12" class="secondary-btn" rx="2"/>
    <text x="75" y="80" text-anchor="middle" class="small-text">Risk Assessment</text>
    <rect x="30" y="85" width="90" height="8" class="secondary-btn" rx="2"/>
    <text x="75" y="90" text-anchor="middle" class="small-text">Compliance Status</text>
    
    <rect x="140" y="35" width="120" height="60" class="card" rx="6"/>
    <text x="200" y="50" text-anchor="middle" class="body-text">🔍 Recent Activity</text>
    <text x="150" y="60" class="small-text">2:45 PM - User login</text>
    <text x="150" y="70" class="small-text">2:50 PM - Contract upload</text>
    <text x="150" y="80" class="small-text">3:15 PM - AI analysis complete</text>
    <text x="150" y="90" class="small-text">3:20 PM - Report generated</text>
    
    <rect x="20" y="105" width="240" height="30" class="card" rx="6"/>
    <text x="30" y="120" class="body-text">📥 Export Options</text>
    <rect x="30" y="125" width="30" height="8" class="success" rx="2"/>
    <text x="45" y="130" text-anchor="middle" class="small-text" fill="white">PDF</text>
    <rect x="70" y="125" width="30" height="8" class="primary-btn" rx="2"/>
    <text x="85" y="130" text-anchor="middle" class="small-text" fill="white">Excel</text>
    <rect x="110" y="125" width="30" height="8" class="warning" rx="2"/>
    <text x="125" y="130" text-anchor="middle" class="small-text" fill="white">CSV</text>
    <rect x="150" y="125" width="35" height="8" class="secondary-btn" rx="2"/>
    <text x="167" y="130" text-anchor="middle" class="small-text">Schedule</text>
    
    <rect x="20" y="145" width="240" height="20" fill="#f0fdf4" stroke="#10b981" rx="6"/>
    <text x="140" y="158" text-anchor="middle" class="body-text" fill="#10b981">✅ All Systems Compliant - Enterprise Ready</text>
  </g>

  <!-- Step 9: Human-in-Loop -->
  <g transform="translate(1040, 320)">
    <rect class="screen" width="280" height="180" rx="8"/>
    <text x="140" y="20" text-anchor="middle" class="header-text">9. Human-in-Loop Review</text>
    <rect x="20" y="35" width="120" height="50" class="card" rx="6"/>
    <text x="25" y="50" class="header-text">🤖 AI Analysis</text>
    <text x="25" y="62" class="small-text">• Contract: Software License</text>
    <text x="25" y="72" class="small-text">• Risk Level: Medium</text>
    <text x="25" y="82" class="small-text">• 2 items flagged for review</text>
    <rect x="105" y="40" width="30" height="12" class="warning" rx="6"/>
    <text x="120" y="48" text-anchor="middle" class="small-text" fill="white">Review</text>
    
    <rect x="150" y="35" width="110" height="50" class="human-review" rx="6"/>
    <text x="155" y="50" class="header-text">👤 Expert Validation</text>
    <text x="155" y="62" class="small-text">Ambiguous clauses detected:</text>
    <rect x="160" y="67" width="6" height="6" class="warning" rx="3"/>
    <text x="172" y="72" class="small-text">Penalty clause (85%)</text>
    <rect x="160" y="77" width="6" height="6" class="success" rx="3"/>
    <text x="172" y="82" class="small-text">Payment terms ✓ (96%)</text>
    
    <rect x="20" y="95" width="240" height="50" class="card" rx="6"/>
    <text x="25" y="110" class="header-text">📝 Interactive Review Interface</text>
    <rect x="30" y="118" width="95" height="22" fill="#f8fafc" stroke="#e5e7eb" rx="4"/>
    <text x="33" y="127" class="small-text">Clause Under Review:</text>
    <text x="33" y="137" class="small-text">"90-day notice required..."</text>
    
    <rect x="135" y="118" width="115" height="22" fill="#f0f9ff" stroke="#3b82f6" rx="4"/>
    <text x="140" y="127" class="small-text">Expert Validation:</text>
    <rect x="140" y="132" width="25" height="8" class="success" rx="4"/>
    <text x="152" y="137" text-anchor="middle" class="small-text" fill="white">✓ Confirm</text>
    <rect x="170" y="132" width="25" height="8" class="warning" rx="4"/>
    <text x="182" y="137" text-anchor="middle" class="small-text" fill="white">⚠ Modify</text>
    <rect x="200" y="132" width="25" height="8" class="secondary-btn" rx="4"/>
    <text x="212" y="137" text-anchor="middle" class="small-text">Research</text>
    
    <rect x="20" y="155" width="240" height="20" fill="#fef3c7" stroke="#f59e0b" rx="6"/>
    <text x="140" y="168" text-anchor="middle" class="body-text" fill="#f59e0b">🧠 Human-AI Collaboration for Enhanced Accuracy</text>
  </g>

  <!-- Step 10: Royalty Calculations -->
  <g transform="translate(1370, 320)">
    <rect class="screen" width="280" height="180" rx="8"/>
    <text x="140" y="20" text-anchor="middle" class="header-text">10. AI Royalty Calculations</text>
    <rect x="20" y="35" width="115" height="55" class="ai-rules" rx="6"/>
    <text x="25" y="50" class="header-text">🤖 AI-Generated Rules</text>
    <rect x="28" y="55" width="6" height="6" class="success" rx="3"/>
    <text x="38" y="60" class="small-text">Streaming: 15%</text>
    <rect x="28" y="65" width="6" height="6" class="success" rx="3"/>
    <text x="38" y="70" class="small-text">Physical: 12%</text>
    <rect x="28" y="75" width="6" height="6" class="warning" rx="3"/>
    <text x="38" y="80" class="small-text">Sync: 50% split</text>
    <rect x="95" y="40" width="35" height="12" class="success" rx="6"/>
    <text x="112" y="48" text-anchor="middle" class="small-text" fill="white">92% Confident</text>
    
    <rect x="145" y="35" width="115" height="55" class="card" rx="6"/>
    <text x="202" y="50" text-anchor="middle" class="header-text">📊 Live Calculations</text>
    <rect x="152" y="55" width="100" height="8" fill="#f0fdf4" stroke="#10b981" rx="2"/>
    <text x="155" y="61" class="small-text">Q4 Streaming:</text>
    <text x="245" y="61" text-anchor="end" class="body-text" fill="#10b981">$18,450</text>
    <rect x="152" y="66" width="100" height="8" fill="#f0f9ff" stroke="#3b82f6" rx="2"/>
    <text x="155" y="72" class="small-text">Physical Sales:</text>
    <text x="245" y="72" text-anchor="end" class="body-text" fill="#3b82f6">$7,230</text>
    <rect x="152" y="77" width="100" height="8" fill="#1e40af" rx="2"/>
    <text x="155" y="83" class="small-text" fill="white">Total Quarterly:</text>
    <text x="245" y="83" text-anchor="end" class="body-text" fill="white">$38,180</text>
    
    <rect x="20" y="100" width="240" height="45" class="card" rx="6"/>
    <text x="25" y="115" class="header-text">⚡ Dynamic Processing Engine</text>
    <rect x="30" y="122" width="65" height="18" fill="#f8fafc" stroke="#e5e7eb" rx="4"/>
    <text x="35" y="130" class="small-text">1. Extract</text>
    <text x="35" y="138" class="small-text">Clauses</text>
    <rect x="105" y="122" width="65" height="18" fill="#f8fafc" stroke="#e5e7eb" rx="4"/>
    <text x="110" y="130" class="small-text">2. Generate</text>
    <text x="110" y="138" class="small-text">Rules</text>
    <rect x="180" y="122" width="65" height="18" fill="#f8fafc" stroke="#e5e7eb" rx="4"/>
    <text x="185" y="130" class="small-text">3. Calculate</text>
    <text x="185" y="138" class="small-text">Totals</text>
    
    <rect x="20" y="155" width="240" height="20" fill="#f0f9ff" stroke="#3b82f6" rx="6"/>
    <text x="140" y="168" text-anchor="middle" class="body-text" fill="#3b82f6">💰 Automated Royalty Processing - 95% Accuracy</text>
  </g>

  <!-- Flow Arrows Row 2 -->
  <line x1="340" y1="410" x2="370" y2="410" class="arrow"/>
  <line x1="670" y1="410" x2="700" y2="410" class="arrow"/>
  <line x1="1000" y1="410" x2="1030" y2="410" class="arrow"/>
  <line x1="1330" y1="410" x2="1360" y2="410" class="arrow"/>

  <!-- Key Features Section -->
  <g transform="translate(50, 550)">
    <text x="0" y="25" class="title-text">Enhanced Platform Capabilities &amp; Innovation</text>
    
    <!-- Feature 1: AI Analysis -->
    <rect x="0" y="40" width="340" height="90" class="card" rx="8"/>
    <rect x="20" y="55" width="30" height="30" class="primary-btn" rx="15"/>
    <text x="35" y="73" text-anchor="middle" class="button-text" font-size="14px">🤖</text>
    <text x="65" y="67" class="header-text">AI-Powered Contract Intelligence</text>
    <text x="65" y="80" class="body-text">• LLaMA 3.1 8B Instant model for advanced analysis</text>
    <text x="65" y="92" class="body-text">• 94% accuracy in legal term extraction</text>
    <text x="65" y="104" class="body-text">• Real-time risk assessment &amp; compliance checking</text>
    <text x="65" y="116" class="body-text">• Automated contract summarization &amp; insights</text>
    
    <!-- Feature 2: Human-in-Loop -->
    <rect x="360" y="40" width="340" height="90" class="card" rx="8"/>
    <rect x="380" y="55" width="30" height="30" class="warning" rx="15"/>
    <text x="395" y="73" text-anchor="middle" class="button-text" font-size="14px">👤</text>
    <text x="425" y="67" class="header-text">Human-in-Loop Expert Validation</text>
    <text x="425" y="80" class="body-text">• Expert review for complex legal interpretations</text>
    <text x="425" y="92" class="body-text">• Auto-escalation for low-confidence AI analysis</text>
    <text x="425" y="104" class="body-text">• Continuous learning from human feedback</text>
    <text x="425" y="116" class="body-text">• Risk mitigation through expert oversight</text>
    
    <!-- Feature 3: Royalty Engine -->
    <rect x="720" y="40" width="340" height="90" class="card" rx="8"/>
    <rect x="740" y="55" width="30" height="30" class="success" rx="15"/>
    <text x="755" y="73" text-anchor="middle" class="button-text" font-size="14px">💰</text>
    <text x="785" y="67" class="header-text">Dynamic Royalty Processing Engine</text>
    <text x="785" y="80" class="body-text">• AI-generated calculation rules from contracts</text>
    <text x="785" y="92" class="body-text">• Real-time revenue tracking &amp; calculations</text>
    <text x="785" y="104" class="body-text">• Multi-source data integration &amp; validation</text>
    <text x="785" y="116" class="body-text">• 95% calculation accuracy with audit trails</text>
    
    <!-- Feature 4: Security -->
    <rect x="1080" y="40" width="340" height="90" class="card" rx="8"/>
    <rect x="1100" y="55" width="30" height="30" fill="#8b5cf6" rx="15"/>
    <text x="1115" y="73" text-anchor="middle" class="button-text" font-size="14px">🔒</text>
    <text x="1145" y="67" class="header-text">Enterprise Security &amp; Compliance</text>
    <text x="1145" y="80" class="body-text">• Role-based access control (RBAC) system</text>
    <text x="1145" y="92" class="body-text">• Complete audit trail logging &amp; monitoring</text>
    <text x="1145" y="104" class="body-text">• Session-based authentication &amp; encryption</text>
    <text x="1145" y="116" class="body-text">• SOC 2 ready with data compliance features</text>
  </g>

  <!-- Technology Stack -->
  <g transform="translate(50, 680)">
    <text x="0" y="25" class="title-text">Technology Stack &amp; System Architecture</text>
    
    <!-- Frontend -->
    <rect x="0" y="40" width="160" height="80" class="card" rx="8"/>
    <text x="80" y="57" text-anchor="middle" class="header-text">Frontend Stack</text>
    <text x="15" y="70" class="body-text">• React + TypeScript</text>
    <text x="15" y="82" class="body-text">• TailwindCSS + shadcn/ui</text>
    <text x="15" y="94" class="body-text">• TanStack Query</text>
    <text x="15" y="106" class="body-text">• Vite Build System</text>
    
    <!-- Backend -->
    <rect x="180" y="40" width="160" height="80" class="card" rx="8"/>
    <text x="260" y="57" text-anchor="middle" class="header-text">Backend Services</text>
    <text x="195" y="70" class="body-text">• Express.js + TypeScript</text>
    <text x="195" y="82" class="body-text">• Session Authentication</text>
    <text x="195" y="94" class="body-text">• RESTful API Design</text>
    <text x="195" y="106" class="body-text">• Middleware Pipeline</text>
    
    <!-- Database -->
    <rect x="360" y="40" width="160" height="80" class="card" rx="8"/>
    <text x="440" y="57" text-anchor="middle" class="header-text">Database Layer</text>
    <text x="375" y="70" class="body-text">• PostgreSQL (Neon)</text>
    <text x="375" y="82" class="body-text">• Drizzle ORM</text>
    <text x="375" y="94" class="body-text">• Type-Safe Queries</text>
    <text x="375" y="106" class="body-text">• Migration System</text>
    
    <!-- AI Services -->
    <rect x="540" y="40" width="160" height="80" class="card" rx="8"/>
    <text x="620" y="57" text-anchor="middle" class="header-text">AI &amp; ML Services</text>
    <text x="555" y="70" class="body-text">• Groq API Integration</text>
    <text x="555" y="82" class="body-text">• LLaMA 3.1 8B Model</text>
    <text x="555" y="94" class="body-text">• Async Processing</text>
    <text x="555" y="106" class="body-text">• Confidence Scoring</text>
    
    <!-- Security -->
    <rect x="720" y="40" width="160" height="80" class="card" rx="8"/>
    <text x="800" y="57" text-anchor="middle" class="header-text">Security Features</text>
    <text x="735" y="70" class="body-text">• RBAC Authentication</text>
    <text x="735" y="82" class="body-text">• Audit Trail Logging</text>
    <text x="735" y="94" class="body-text">• Data Encryption</text>
    <text x="735" y="106" class="body-text">• Compliance Ready</text>
  </g>

  <!-- Business Impact Section -->
  <g transform="translate(50, 800)">
    <text x="0" y="25" class="title-text">Business Impact &amp; Return on Investment</text>
    
    <rect x="0" y="40" width="280" height="65" fill="#f0fdf4" stroke="#10b981" rx="8"/>
    <text x="140" y="58" text-anchor="middle" class="header-text" fill="#10b981">80% Time Reduction</text>
    <text x="140" y="74" text-anchor="middle" class="body-text">Contract analysis automation eliminates</text>
    <text x="140" y="86" text-anchor="middle" class="body-text">manual review processes completely</text>
    <text x="140" y="98" text-anchor="middle" class="body-text">Average: 4 hours → 45 minutes</text>
    
    <rect x="300" y="40" width="280" height="65" fill="#fef3c7" stroke="#f59e0b" rx="8"/>
    <text x="440" y="58" text-anchor="middle" class="header-text" fill="#f59e0b">95% Risk Detection Accuracy</text>
    <text x="440" y="74" text-anchor="middle" class="body-text">AI-powered risk assessment with</text>
    <text x="440" y="86" text-anchor="middle" class="body-text">human expert validation workflow</text>
    <text x="440" y="98" text-anchor="middle" class="body-text">Critical issue detection: 99.2%</text>
    
    <rect x="600" y="40" width="280" height="65" fill="#f0f9ff" stroke="#3b82f6" rx="8"/>
    <text x="740" y="58" text-anchor="middle" class="header-text" fill="#3b82f6">$2M+ Portfolio Analytics</text>
    <text x="740" y="74" text-anchor="middle" class="body-text">Comprehensive contract portfolio</text>
    <text x="740" y="86" text-anchor="middle" class="body-text">management with automated royalty</text>
    <text x="740" y="98" text-anchor="middle" class="body-text">calculations &amp; revenue tracking</text>
    
    <rect x="900" y="40" width="280" height="65" fill="#fdf2f8" stroke="#ec4899" rx="8"/>
    <text x="1040" y="58" text-anchor="middle" class="header-text" fill="#ec4899">Enterprise Scale Ready</text>
    <text x="1040" y="74" text-anchor="middle" class="body-text">Role-based security, comprehensive</text>
    <text x="1040" y="86" text-anchor="middle" class="body-text">audit trails, and compliance reporting</text>
    <text x="1040" y="98" text-anchor="middle" class="body-text">SOC 2 Type II compliant architecture</text>
  </g>

  <!-- Footer -->
  <text x="900" y="920" text-anchor="middle" class="small-text">Licence IQ Research Platform - Complete AI-Powered Contract Intelligence Solution</text>
  <text x="900" y="940" text-anchor="middle" class="small-text">© 2024 Advanced Document Analysis • Human-AI Collaboration • Automated Royalty Processing • Enterprise Security</text>
</svg>